<?xml version="1.0" encoding="utf-8"?>
<!-- Generator: Adobe Illustrator 24.3.0, SVG Export Plug-In . SVG Version: 6.00 Build 0)  -->
<svg version="1.1" id="Layer_1" xmlns="http://www.w3.org/2000/svg" xmlns:xlink="http://www.w3.org/1999/xlink" x="0px" y="0px"
	 viewBox="0 0 595.28 265.43" style="enable-background:new 0 0 595.28 265.43;" xml:space="preserve">
<style type="text/css">
	.st0{fill:#FFFFFF;}
	.st1{fill:#FBB040;}
	.st2{fill-rule:evenodd;clip-rule:evenodd;fill:#FBB040;}
	.st3{fill-rule:evenodd;clip-rule:evenodd;}
</style>
<path class="st0" d="M532.29,70.7c2.73-4.85,5.16-9.92,7.23-15.08c1.87-4.25,3.61-8.87,5.16-13.72c2.02-6.25,2.79-12.58,2.32-18.82
	c-0.12-2.27-0.51-4.64-1.17-7.05c-1.17-4.29-3.48-8.03-6.68-10.84c-2.85-2.53-6.43-4.18-10.7-4.91c-1.09-0.18-2.2-0.28-3.28-0.28
	c-2.2,0-4.31,0.37-6.3,1.07c-0.56,0.04-1.11,0.1-1.65,0.17c-4.39,0.62-8.55,2.06-12.39,4.28c-2.82,1.64-5.51,3.55-8.01,5.68
	c-3.48,2.69-6.69,5.7-9.56,8.98c-2.64,3.01-5.18,6.22-7.51,9.48c-5.67,7.86-10.67,16.37-14.84,25.29
	c-2.57,5.49-5.04,11.04-7.44,16.6c-0.57-0.99-1.19-1.96-1.94-2.87c3.95-3.47,6.87-7.87,8.6-12.99c1.21-3.61,1.74-7.36,1.57-11.15
	c-0.17-3.76-1-7.39-2.49-10.84c-1.5-3.44-3.6-6.53-6.24-9.18c-3.04-3.05-6.75-5.28-11.04-6.62c-2.87-0.93-5.83-1.41-8.8-1.41
	c-1.01,0-2.03,0.05-3.07,0.17c-3.79,0.41-7.4,1.5-10.73,3.25c-1.99,1.05-3.84,2.32-5.53,3.79c-0.98-0.46-1.97-0.87-2.99-1.21
	c-3.14-1.1-6.34-1.66-9.53-1.66c-4.86,0-9.56,1.26-13.98,3.77c-6.71,3.8-11.55,9.51-14.07,16.7c-2.42,7.2-2.08,14.76,0.96,21.87
	c0.74,1.72,1.6,3.34,2.6,4.84c-0.29,0.14-0.58,0.28-0.87,0.42c-2.73,1.36-5.29,3.34-7.66,5.83c-1.29-1.84-2.96-3.45-5.06-4.6
	c-3.22-1.76-6.77-2.66-10.57-2.66c-0.42,0-0.84,0.01-1.3,0.03c-2.64,0.14-5.34,0.63-8.03,1.44c-2.19,0.66-4.32,1.45-6.36,2.38
	c-2.39,1.08-4.38,2.23-6.06,3.5c-0.8,0.58-1.57,1.18-2.34,1.8c-3.48-2.21-7.28-3.67-11.28-4.33c-2.11-0.34-4.27-0.52-6.4-0.52
	c-4.14,0-8.32,0.65-12.46,1.94c-5.45,1.71-10.7,4.28-15.59,7.65c-4.59,3.16-8.56,6.58-11.81,10.14c-1.11,1.22-2.18,2.51-3.24,3.79
	c-0.54-1.06-1.11-2.05-1.78-2.97C265.88,86.23,259.6,83,252.75,83c-0.65,0-1.31,0.03-1.99,0.09c-0.27,0.02-0.54,0.05-0.81,0.09
	c-1.48,0.21-3.82,0.6-7.05,1.19c-2.82,0.52-6.03,1.06-9.63,1.63c-3.8,0.6-7.75,1.26-11.87,1.96c-3.88,0.67-7.53,1.24-10.95,1.73
	c-3.43,0.48-6.41,0.88-8.98,1.18c-0.7,0.08-1.17,0.12-1.46,0.14c-0.7-0.1-1.41-0.15-2.11-0.15c-2.19,0-4.35,0.48-6.35,1.4
	c-1.54-3.88-3.42-7.65-5.67-11.26c-0.94-1.51-1.96-2.94-3.06-4.3c4.93-3.67,8.54-8.63,10.53-14.57c1.2-3.6,1.73-7.34,1.56-11.15
	c-0.17-3.77-1.01-7.4-2.48-10.8c-1.5-3.45-3.61-6.55-6.26-9.21c-3.04-3.05-6.75-5.27-11.03-6.6c-2.87-0.93-5.83-1.41-8.81-1.41
	c-1.01,0-2.03,0.05-3.07,0.17c-3.81,0.41-7.41,1.51-10.72,3.24c-2,1.05-3.85,2.32-5.54,3.79c-0.98-0.46-1.97-0.87-2.99-1.2
	c-3.14-1.1-6.35-1.66-9.53-1.66c-4.85,0-9.56,1.26-13.98,3.76c-6.71,3.8-11.55,9.51-14.07,16.69c-2.22,6.62-2.12,13.56,0.28,20.17
	c-0.04,0.02-0.09,0.05-0.13,0.07c-4.86,2.48-9.48,5.41-13.77,8.73c-4.09,3.17-8,6.71-11.64,10.52
	c-6.85,6.84-12.96,14.49-18.18,22.73c-5.21,8.23-9.55,17.07-12.9,26.27c-1.72,4.74-3.22,9.75-4.45,14.88
	c-1.31,5.44-2.14,11.01-2.47,16.56c-0.33,5.61-0.15,11.25,0.56,16.75c0.76,6.01,2.38,11.88,4.76,17.35
	c2.62,6.13,6.19,11.48,10.6,15.9c4.25,4.27,9.14,7.75,14.52,10.34c5.27,2.53,10.98,4.2,16.96,4.97c2.71,0.35,5.46,0.52,8.2,0.52
	c3.07,0,6.19-0.22,9.28-0.66c9.97-1.41,19.42-4.48,28.06-9.14c8.24-4.43,15.86-9.93,22.67-16.34c0.58-0.55,1.12-1.14,1.69-1.7
	c1.17,1.61,2.44,3.02,3.9,4.18c3.66,2.93,8.25,4.47,13.29,4.47c0.65,0,1.32-0.03,1.81-0.07c2.71-0.17,5.45-0.66,8.25-1.48l4.4-1.32
	c5.52-1.37,11.34-2.66,17.3-3.85c6.11-1.22,12.2-2.3,18.1-3.19c3.84-0.58,7.54-1.07,11.07-1.48c-1.73,4.86-2.6,10.26-2.51,16.23
	c0.25,9.87,3.07,18.21,8.39,24.79c5.07,6.26,11.45,10.64,18.97,13.02c4.26,1.35,8.71,2.03,13.23,2.03c2.92,0,5.92-0.29,8.94-0.86
	c7.51-1.43,14.4-4.52,20.41-9.15c6-4.58,11.12-10.11,15.24-16.43c1.49-2.29,2.9-4.62,4.22-6.98c1.31,0.16,2.62,0.31,3.93,0.45
	c3.45,0.37,70.78,5.52,77.23,5.51c0.1,0,0.27,0,0.37,0c3.58-0.07,7.32-0.34,11.13-0.8c4-0.49,8-1.29,11.92-2.38
	c4.17-1.16,8.18-2.73,11.92-4.65c4.07-2.09,7.82-4.73,11.13-7.86c1.77-1.61,3.45-3.52,5.13-5.87c1.47-2.06,2.8-4.24,3.95-6.48
	c1.54-2.99,2.59-6.09,3.14-9.28c0.79-4.73,0.1-9.48-2-13.73c-2.28-4.61-6.75-7.76-11.86-8.33c-0.57-0.07-1.13-0.1-1.69-0.1
	c-0.69,0-1.36,0.06-2.04,0.15c0.3-0.24,0.61-0.45,0.9-0.7c2.77-2.33,5.24-4.82,7.34-7.35c3.71,3.36,7.9,5.83,12.57,7.32
	c3.44,1.1,7.05,1.66,10.73,1.66c3.5,0,7.1-0.51,10.73-1.51c6.68-1.86,13.07-5.35,19.02-10.4c4.4-3.76,8.47-7.98,12.1-12.53
	c3.41-4.29,6.57-8.82,9.39-13.48c2.77-4.58,5.26-9.26,7.41-13.89c2.11-4.58,3.94-9.06,5.43-13.32c1.14-3.25,1.13-6.78-0.01-10.03
	c-3.25-9.23-9.84-11.97-13.5-12.78c-1.29-0.29-2.63-0.43-3.97-0.43c-0.77,0-1.54,0.05-2.3,0.14c0.1-0.15,0.2-0.3,0.3-0.45
	C526.86,79.98,529.67,75.35,532.29,70.7z"/>
<path class="st1" d="M136.62,84.47l5.45-1.33c3.9-0.8,7.92-1.21,12.05-1.23c4.13-0.02,7.97,0.98,11.51,2.98
	c4.21,2.29,7.57,5.45,10.08,9.48c2.51,4.03,4.46,8.27,5.84,12.71c2.65,9.03,3.48,18.22,2.48,27.57c-1,9.35-3.15,18.34-6.44,26.95
	c-2.96,7.44-6.65,14.6-11.06,21.49c-4.42,6.89-9.56,13.1-15.42,18.63c-5.86,5.53-12.35,10.2-19.45,14.03
	c-7.11,3.82-14.78,6.32-23.01,7.48c-4.55,0.64-9.02,0.68-13.43,0.11c-4.4-0.57-8.52-1.77-12.36-3.61c-3.83-1.84-7.28-4.3-10.35-7.38
	c-3.07-3.07-5.53-6.8-7.41-11.17c-1.85-4.25-3.08-8.68-3.66-13.3c-0.59-4.62-0.75-9.26-0.47-13.94c0.28-4.67,0.97-9.32,2.08-13.92
	c1.1-4.6,2.42-9.02,3.96-13.25c2.98-8.19,6.8-15.97,11.46-23.33c4.66-7.36,10.07-14.11,16.22-20.25c3.16-3.33,6.52-6.37,10.08-9.14
	c3.56-2.76,7.38-5.18,11.48-7.26c3.85-2.05,7.68-3.27,11.51-3.69c2.37-0.08,4.6,0.17,6.69,0.75L136.62,84.47z M141.11,108.27
	c1.82,1.37,3.34,3.04,4.56,5c1.21,1.96,2.14,4.02,2.75,6.19c0.62,2.17,1.03,4.43,1.24,6.78c0.2,2.35,0.2,4.55-0.02,6.58
	c-0.61,8.99-3.73,17.07-9.35,24.26c-2.55,3.25-5.71,5.95-9.48,8.11c-3.77,2.16-7.66,3.46-11.67,3.91c-4.01,0.44-7.91-0.1-11.7-1.64
	c-3.79-1.53-6.97-4.31-9.54-8.33c-2.22-3.32-3.61-6.89-4.14-10.7c-0.54-3.81-0.59-7.75-0.16-11.82c-3.22,6.47-5.99,13.25-8.31,20.35
	c-2.32,7.1-3.71,13.87-4.18,20.33c-0.63,7.99,0.08,14.56,2.12,19.72c2.05,5.16,4.92,8.9,8.63,11.19c3.7,2.3,8.06,3.19,13.06,2.67
	c5-0.52,10.21-2.45,15.63-5.78c5.42-3.33,10.83-8.08,16.23-14.23c5.4-6.15,10.35-13.68,14.86-22.59c1.93-4.03,3.86-8.6,5.77-13.69
	c1.91-5.09,3.59-10.29,5.04-15.57c1.44-5.28,2.58-10.55,3.41-15.8c0.82-5.25,1.15-10.03,0.98-14.33c-0.17-4.3-0.96-7.95-2.39-10.94
	c-1.43-2.99-3.59-4.97-6.48-5.95c-5.14-1.78-10.45-1.47-15.94,0.94c-5.49,2.41-10.59,6.01-15.3,10.81
	c-4.71,4.8-8.77,10.3-12.15,16.47c-3.39,6.18-5.62,12.17-6.68,17.96c-0.28,1.54-0.32,3.27-0.11,5.19s0.7,3.6,1.47,5.06
	c0.77,1.46,1.82,2.5,3.17,3.12c1.34,0.63,3.06,0.35,5.15-0.82c3.5-1.87,6.67-4.67,9.53-8.4c2.86-3.72,5.31-7.67,7.35-11.85
	c2.04-4.17,3.62-8.28,4.74-12.33C140.34,114.09,140.97,110.8,141.11,108.27z M150.16,67.14c-0.62,1.85-1.55,3.48-2.78,4.91
	c-1.24,1.43-2.67,2.6-4.3,3.52c-1.63,0.92-3.4,1.48-5.31,1.69c-1.91,0.21-3.79,0-5.63-0.62c-3.82-1.34-6.54-3.87-8.13-7.59
	c-1.59-3.72-1.77-7.43-0.53-11.11c1.25-3.56,3.65-6.34,7.19-8.35c3.54-2,7.22-2.33,11.05-0.99c1.84,0.62,3.45,1.58,4.82,2.89
	c1.38,1.31,2.41,2.83,3.09,4.55c0.68,1.72,1.09,3.54,1.24,5.46C151.01,63.42,150.77,65.3,150.16,67.14z M181.68,62.69
	c-1.24,3.68-3.6,6.49-7.08,8.43c-3.49,1.93-7.14,2.29-10.94,1.07c-3.82-1.34-6.5-3.87-8.03-7.61c-1.53-3.73-1.68-7.44-0.44-11.12
	c0.63-1.72,1.56-3.32,2.8-4.81c1.23-1.49,2.66-2.66,4.3-3.52c1.63-0.86,3.4-1.39,5.32-1.6c1.91-0.21,3.79,0,5.63,0.62
	c1.96,0.6,3.6,1.56,4.92,2.88c1.32,1.32,2.34,2.84,3.09,4.55c0.74,1.71,1.15,3.54,1.24,5.46C182.56,58.96,182.29,60.84,181.68,62.69
	z"/>
<path class="st1" d="M252.35,125.09c-3.62,2.77-7.03,5.73-10.22,8.87c-3.19,3.15-6.24,6.37-9.16,9.66c-2.5,2.73-5.11,5.77-7.84,9.1
	c-2.72,3.33-5.54,6.71-8.44,10.12c-2.9,3.42-5.82,6.72-8.76,9.89c-2.94,3.17-5.81,5.9-8.62,8.17c3.72-1.15,7.7-2.47,11.95-3.94
	c4.24-1.47,8.51-2.73,12.81-3.78c4.3-1.05,8.44-1.69,12.42-1.94c3.98-0.25,7.55,0.22,10.73,1.4c4.89,1.82,8.11,4.47,9.67,7.94
	c1.55,3.48,2.26,7.3,2.09,11.46c-3.77-0.09-8.35,0.12-13.73,0.62c-5.38,0.51-11.14,1.23-17.27,2.16c-6.14,0.93-12.4,2.03-18.8,3.31
	c-6.4,1.28-12.5,2.65-18.32,4.09c-1.56,0.47-3.16,0.95-4.78,1.43c-1.63,0.48-3.25,0.77-4.86,0.87c-1.98,0.15-3.54-0.22-4.67-1.13
	c-1.13-0.9-2.19-2.67-3.19-5.28c-0.99-2.61-1.3-4.61-0.93-5.98c0.37-1.37,1.02-2.31,1.95-2.81c3.69-2.28,7.17-4.93,10.44-7.96
	c3.27-3.03,6.43-6.14,9.49-9.33c2.62-2.75,5.36-5.74,8.23-8.97c2.86-3.22,5.78-6.55,8.74-9.98c2.96-3.43,5.84-6.81,8.63-10.15
	c2.78-3.34,5.42-6.43,7.9-9.29c1.51-1.72,2.87-3.22,4.06-4.52c1.19-1.3,2.63-2.69,4.29-4.18c-2.21,0.31-4.56,0.8-7.03,1.47
	c-2.47,0.66-4.93,1.26-7.36,1.79c-2.44,0.53-4.79,0.89-7.08,1.09c-2.29,0.2-4.37-0.07-6.23-0.81c-4.11-1.55-6.61-3.77-7.52-6.65
	c-0.91-2.88-1.02-6.37-0.35-10.48c0.91,0.25,2.69,0.22,5.34-0.1c2.65-0.31,5.75-0.72,9.32-1.22c3.56-0.5,7.37-1.1,11.4-1.8
	c4.04-0.69,7.93-1.34,11.66-1.93c3.74-0.59,7.08-1.15,10.01-1.7c2.93-0.54,5.07-0.9,6.43-1.09c2.35-0.21,4.23,0.66,5.63,2.59
	c1.4,1.93,2.29,6.01,2.66,12.22c-1.84,1.14-3.66,2.24-5.45,3.31C255.79,122.69,254.05,123.84,252.35,125.09z"/>
<path class="st1" d="M447.35,89.46c-1.2,3.93-2.6,8.05-4.18,12.34c-1.59,4.3-3.19,8.66-4.83,13.09c-1.63,4.43-3.23,8.92-4.77,13.46
	c-1.56,4.54-2.77,9.01-3.66,13.4c-1.29,6.83-0.96,11.36,0.98,13.59c1.94,2.23,4.34,2.33,7.19,0.3c2.39-1.72,4.77-4.15,7.14-7.31
	c2.38-3.15,4.64-6.64,6.8-10.45c2.16-3.81,4.15-7.7,5.97-11.65c1.82-3.95,3.37-7.65,4.64-11.09c1.61-0.98,2.94-1.38,3.97-1.22
	c1.02,0.17,1.81,1.28,2.35,3.33c-2.91,7.81-5.9,15-8.98,21.57c-3.08,6.58-6.83,12.87-11.24,18.89c-1.88,2.65-4.25,5.18-7.11,7.58
	c-2.86,2.41-5.89,4.25-9.09,5.52c-3.21,1.26-6.44,1.66-9.71,1.18s-6.25-2.34-8.97-5.59c-3-3.46-4.85-7.24-5.55-11.34
	c-0.71-4.1-0.73-8.26-0.08-12.49c-2.27,4.33-4.72,8.69-7.37,13.07c-2.64,4.39-5.48,8.2-8.53,11.46c-3.06,3.25-6.19,5.64-9.42,7.16
	c-3.24,1.52-6.51,1.64-9.82,0.35c-2.93-1.21-5.18-2.96-6.76-5.25c-1.57-2.28-2.72-4.82-3.43-7.6c-0.7-2.78-1.02-5.68-0.95-8.7
	c0.08-3.02,0.31-5.81,0.7-8.37c0.96-6.53,2.49-12.98,4.6-19.36c2.11-6.38,4.68-12.53,7.73-18.48c0.68-1.35,1.55-3.01,2.58-4.97
	c1.04-1.96,2.21-3.88,3.51-5.76c1.3-1.88,2.65-3.63,4.05-5.27c1.39-1.64,2.8-2.81,4.21-3.51c2.11-1.05,4.12-1.65,6.05-1.79
	c1.92-0.15,3.67,0.02,5.24,0.48c1.57,0.47,2.97,1.05,4.2,1.76c1.23,0.7,2.2,1.38,2.92,2.03c-1.53,2.47-3.13,5.33-4.8,8.57
	c-1.67,3.25-3.38,6.65-5.14,10.22s-3.43,7.19-5.04,10.86c-1.61,3.68-3.12,7.18-4.53,10.51c-3.56,8.53-5.55,14.86-5.97,18.99
	c-0.42,4.13,0.05,6.6,1.42,7.41c1.37,0.81,3.35,0.22,5.95-1.78c2.6-1.99,5.2-4.87,7.81-8.62c1.99-2.79,3.81-5.62,5.48-8.48
	c1.66-2.87,3.35-5.8,5.06-8.8c3.78-6.92,7.07-14.07,9.85-21.41c2.79-7.35,5.83-14.83,9.15-22.44c0.87-1.87,1.81-3.36,2.85-4.45
	c1.04-1.09,2.64-1.47,4.82-1.15c5.9,0.92,9.68,2.2,11.35,3.85C447.65,84.72,448.11,86.85,447.35,89.46z M420.92,60.67
	c-0.62,1.84-1.55,3.48-2.79,4.9c-1.24,1.43-2.67,2.61-4.3,3.52c-1.63,0.92-3.39,1.48-5.31,1.69c-1.91,0.21-3.79,0-5.63-0.62
	c-3.82-1.34-6.53-3.87-8.12-7.6c-1.59-3.72-1.77-7.42-0.53-11.11c1.25-3.56,3.64-6.34,7.18-8.35c3.54-2,7.22-2.34,11.05-1
	c1.84,0.62,3.45,1.58,4.83,2.89s2.4,2.83,3.09,4.54c0.68,1.72,1.1,3.55,1.24,5.46C421.77,56.95,421.53,58.83,420.92,60.67z
	 M452.44,56.22c-1.24,3.68-3.6,6.49-7.08,8.43c-3.49,1.93-7.13,2.29-10.94,1.07c-3.82-1.34-6.5-3.88-8.03-7.61
	c-1.53-3.73-1.68-7.44-0.44-11.12c0.63-1.72,1.56-3.32,2.8-4.81c1.23-1.49,2.66-2.66,4.3-3.52c1.63-0.86,3.4-1.39,5.32-1.6
	c1.91-0.21,3.79,0,5.63,0.61c1.97,0.6,3.61,1.56,4.92,2.88c1.31,1.32,2.34,2.84,3.09,4.55c0.74,1.71,1.15,3.54,1.24,5.46
	C453.32,52.49,453.05,54.38,452.44,56.22z"/>
<path class="st1" d="M521.99,21.57c0.98-0.14,2.05-0.1,3.21,0.11c0.86-1,2-1.38,3.41-1.14c1.41,0.24,2.47,0.69,3.19,1.33
	c1,0.86,1.69,2.02,2.09,3.46c0.39,1.45,0.61,2.8,0.66,4.04c0.36,4.34-0.17,8.74-1.61,13.2c-1.44,4.47-3.01,8.64-4.72,12.51
	c-1.85,4.65-4,9.15-6.46,13.51c-2.46,4.36-5.07,8.68-7.85,12.95c-3.2,4.84-6.57,9.61-10.11,14.31c-3.53,4.7-7.25,9.2-11.15,13.52
	c-1.22,1.17-2.37,2.34-3.46,3.49c-1.09,1.16-2.18,2.32-3.27,3.47c-0.33,0.3-0.65,0.69-0.96,1.17c-0.31,0.48-0.69,0.88-1.14,1.2
	c-0.38,1.81-0.72,3.55-1.05,5.22c-0.33,1.68-0.68,3.42-1.05,5.22c-0.37,2.69-0.5,5.59-0.37,8.7c0.13,3.12,0.77,5.72,1.95,7.81
	c1.17,2.09,3,3.27,5.49,3.55c2.48,0.28,5.76-1.12,9.84-4.21c2.27-1.7,4.67-3.95,7.22-6.76c2.55-2.81,5.06-5.91,7.52-9.33
	c2.46-3.42,4.76-7.09,6.9-11.03c2.14-3.94,3.88-7.82,5.21-11.64c1.51-0.84,2.79-1.14,3.82-0.92c1.03,0.23,1.86,1.24,2.49,3.03
	c-1.34,3.83-2.97,7.82-4.89,11.97c-1.92,4.16-4.13,8.29-6.61,12.4c-2.49,4.11-5.25,8.07-8.29,11.89c-3.03,3.81-6.4,7.29-10.09,10.45
	c-4.25,3.61-8.67,6.05-13.25,7.32c-4.59,1.27-8.85,1.28-12.79,0.02c-3.94-1.26-7.33-3.79-10.19-7.58c-2.85-3.8-4.62-8.97-5.29-15.52
	c-0.45-4.07-0.47-8.2-0.06-12.4c0.41-4.19,1.11-8.33,2.1-12.43c0.99-4.09,2.21-8.11,3.65-12.08c1.45-3.97,2.92-7.75,4.42-11.34
	c3.37-8.12,6.95-16.24,10.75-24.36c3.8-8.12,8.27-15.74,13.41-22.86c2.09-2.93,4.3-5.71,6.62-8.36c2.32-2.65,4.9-5.04,7.73-7.2
	c1.9-1.65,3.92-3.09,6.06-4.34C517.23,22.72,519.53,21.92,521.99,21.57z M489.38,100.82c2.47-2.98,4.85-6.07,7.15-9.28
	c2.3-3.21,4.54-6.47,6.7-9.78c2.76-4.4,5.38-8.91,7.87-13.52c2.48-4.61,4.83-9.27,7.05-13.97c1.66-3.37,3.09-6.74,4.31-10.1
	c1.22-3.37,2.13-6.91,2.73-10.63c-1.92,2.4-3.87,4.81-5.84,7.22c-1.98,2.41-3.85,4.93-5.61,7.56c-3.84,6.56-7.38,13.23-10.62,20.02
	c-3.24,6.79-6.31,13.71-9.2,20.76L489.38,100.82z"/>
<path class="st2" d="M256.53,211.01c0,0,6.96-23.85,64.39-19.84c54.76,13.38,88.5,10.01,136.46-15.69
	c-18.32,24.37-52.36,59.1-115.16,44.46C272,203.56,256.53,211.01,256.53,211.01z"/>
<path d="M519.32,16.23c0.98-0.14,2.05-0.1,3.21,0.11c0.86-1,2-1.38,3.41-1.14c1.41,0.24,2.47,0.69,3.19,1.33
	c1,0.86,1.69,2.02,2.09,3.46c0.39,1.45,0.61,2.8,0.66,4.04c0.36,4.34-0.17,8.74-1.61,13.2c-1.44,4.47-3.01,8.64-4.72,12.51
	c-1.85,4.65-4,9.15-6.46,13.51c-2.46,4.36-5.07,8.68-7.85,12.95c-3.2,4.84-6.57,9.61-10.11,14.31c-3.53,4.7-7.25,9.2-11.15,13.52
	c-1.22,1.17-2.37,2.34-3.46,3.49c-1.09,1.16-2.18,2.32-3.27,3.47c-0.33,0.3-0.65,0.69-0.96,1.17c-0.31,0.48-0.69,0.88-1.14,1.2
	c-0.38,1.81-0.72,3.55-1.05,5.22c-0.33,1.68-0.68,3.42-1.05,5.22c-0.37,2.69-0.5,5.59-0.37,8.7c0.13,3.12,0.77,5.72,1.95,7.81
	c1.17,2.09,3,3.27,5.49,3.55c2.48,0.28,5.76-1.12,9.84-4.21c2.27-1.7,4.67-3.95,7.22-6.76s5.06-5.91,7.52-9.33
	c2.46-3.42,4.76-7.09,6.9-11.03c2.14-3.94,3.88-7.82,5.21-11.64c1.51-0.84,2.79-1.14,3.82-0.92c1.03,0.23,1.86,1.24,2.49,3.03
	c-1.34,3.83-2.97,7.82-4.89,11.97c-1.92,4.16-4.13,8.29-6.61,12.4c-2.49,4.11-5.25,8.07-8.29,11.89c-3.03,3.81-6.4,7.29-10.09,10.45
	c-4.25,3.61-8.67,6.05-13.25,7.32c-4.59,1.27-8.85,1.28-12.79,0.02s-7.33-3.79-10.19-7.58c-2.85-3.8-4.62-8.97-5.29-15.52
	c-0.45-4.07-0.47-8.2-0.06-12.4c0.41-4.19,1.11-8.33,2.1-12.43c0.99-4.09,2.21-8.11,3.65-12.08c1.45-3.97,2.92-7.75,4.42-11.34
	c3.37-8.12,6.95-16.24,10.75-24.36c3.8-8.12,8.27-15.74,13.41-22.86c2.09-2.93,4.3-5.71,6.62-8.36c2.32-2.65,4.9-5.04,7.73-7.2
	c1.9-1.65,3.92-3.09,6.06-4.34C514.56,17.38,516.86,16.58,519.32,16.23z M486.71,95.48c2.47-2.98,4.85-6.07,7.15-9.28
	c2.3-3.21,4.54-6.47,6.7-9.78c2.76-4.4,5.38-8.91,7.87-13.52c2.48-4.61,4.83-9.27,7.05-13.97c1.66-3.37,3.09-6.74,4.31-10.1
	c1.22-3.37,2.13-6.91,2.73-10.63c-1.92,2.4-3.87,4.81-5.84,7.22c-1.98,2.41-3.85,4.93-5.61,7.56c-3.84,6.56-7.38,13.23-10.62,20.02
	c-3.24,6.79-6.31,13.71-9.2,20.76L486.71,95.48z"/>
<path d="M133.95,79.13l5.45-1.33c3.9-0.8,7.92-1.21,12.05-1.23c4.13-0.02,7.97,0.98,11.51,2.98c4.21,2.29,7.57,5.45,10.08,9.48
	c2.51,4.03,4.46,8.27,5.84,12.71c2.65,9.03,3.48,18.22,2.48,27.57c-1,9.35-3.15,18.34-6.44,26.95c-2.96,7.44-6.65,14.6-11.06,21.49
	c-4.42,6.89-9.56,13.1-15.42,18.63c-5.86,5.53-12.35,10.2-19.45,14.03c-7.11,3.82-14.78,6.32-23.01,7.48
	c-4.55,0.64-9.02,0.68-13.43,0.11c-4.4-0.57-8.52-1.77-12.36-3.61c-3.83-1.84-7.28-4.3-10.35-7.38c-3.07-3.07-5.53-6.8-7.41-11.17
	c-1.85-4.25-3.08-8.68-3.66-13.3c-0.59-4.62-0.75-9.26-0.47-13.94c0.28-4.67,0.97-9.32,2.08-13.92c1.1-4.6,2.42-9.02,3.96-13.25
	c2.98-8.19,6.8-15.97,11.46-23.33c4.66-7.36,10.07-14.11,16.22-20.25c3.16-3.33,6.52-6.37,10.08-9.14
	c3.56-2.76,7.38-5.18,11.48-7.26c3.85-2.05,7.68-3.27,11.51-3.69c2.37-0.08,4.6,0.17,6.69,0.75L133.95,79.13z M138.44,102.93
	c1.82,1.37,3.34,3.04,4.56,5c1.21,1.96,2.14,4.02,2.75,6.19c0.62,2.17,1.03,4.43,1.24,6.78c0.2,2.35,0.2,4.55-0.02,6.58
	c-0.61,8.99-3.73,17.07-9.35,24.26c-2.55,3.25-5.71,5.95-9.48,8.11c-3.77,2.16-7.66,3.46-11.67,3.91c-4.01,0.44-7.91-0.1-11.7-1.64
	c-3.79-1.53-6.97-4.31-9.54-8.33c-2.22-3.32-3.61-6.89-4.14-10.7c-0.54-3.81-0.59-7.75-0.16-11.82c-3.22,6.47-5.99,13.25-8.31,20.35
	c-2.32,7.1-3.71,13.87-4.18,20.33c-0.63,7.99,0.08,14.56,2.12,19.72c2.05,5.16,4.92,8.9,8.63,11.19c3.7,2.3,8.06,3.19,13.06,2.67
	s10.21-2.45,15.63-5.78c5.42-3.33,10.83-8.08,16.23-14.23c5.4-6.15,10.35-13.68,14.86-22.59c1.93-4.03,3.86-8.6,5.77-13.69
	c1.91-5.09,3.59-10.29,5.04-15.57c1.44-5.28,2.58-10.55,3.41-15.8c0.82-5.25,1.15-10.03,0.98-14.33c-0.17-4.3-0.96-7.95-2.39-10.94
	c-1.43-2.99-3.59-4.97-6.48-5.95c-5.14-1.78-10.45-1.47-15.94,0.94c-5.49,2.41-10.59,6.01-15.3,10.81
	c-4.71,4.8-8.77,10.3-12.15,16.47c-3.39,6.18-5.62,12.17-6.68,17.96c-0.28,1.54-0.32,3.27-0.11,5.19s0.7,3.6,1.47,5.06
	c0.77,1.46,1.82,2.5,3.17,3.12c1.34,0.63,3.06,0.35,5.15-0.82c3.5-1.87,6.67-4.67,9.53-8.4c2.86-3.72,5.31-7.67,7.35-11.85
	c2.04-4.17,3.62-8.28,4.74-12.33C137.67,108.75,138.3,105.46,138.44,102.93z M147.49,61.8c-0.62,1.85-1.55,3.48-2.78,4.91
	c-1.24,1.43-2.67,2.6-4.3,3.52c-1.63,0.92-3.4,1.48-5.31,1.69c-1.91,0.21-3.79,0-5.63-0.62c-3.82-1.34-6.54-3.87-8.13-7.59
	c-1.59-3.72-1.77-7.43-0.53-11.11c1.25-3.56,3.65-6.34,7.19-8.35c3.54-2,7.22-2.33,11.05-0.99c1.84,0.62,3.45,1.58,4.82,2.89
	c1.38,1.31,2.41,2.83,3.09,4.55c0.68,1.72,1.09,3.54,1.24,5.46C148.34,58.08,148.1,59.96,147.49,61.8z M179.01,57.35
	c-1.24,3.68-3.6,6.49-7.08,8.43c-3.49,1.93-7.14,2.29-10.94,1.07c-3.82-1.34-6.5-3.87-8.03-7.61c-1.53-3.73-1.68-7.44-0.44-11.12
	c0.63-1.72,1.56-3.32,2.8-4.81c1.23-1.49,2.66-2.66,4.3-3.52c1.63-0.86,3.4-1.39,5.32-1.6c1.91-0.21,3.79,0,5.63,0.62
	c1.96,0.6,3.6,1.56,4.92,2.88c1.32,1.32,2.34,2.84,3.09,4.55c0.74,1.71,1.15,3.54,1.24,5.46C179.89,53.62,179.62,55.51,179.01,57.35
	z"/>
<path d="M249.68,119.75c-3.62,2.77-7.03,5.73-10.22,8.87c-3.19,3.15-6.24,6.37-9.16,9.66c-2.5,2.73-5.11,5.77-7.84,9.1
	c-2.72,3.33-5.54,6.71-8.44,10.12c-2.9,3.42-5.82,6.72-8.76,9.89c-2.94,3.17-5.81,5.9-8.62,8.17c3.72-1.15,7.7-2.47,11.95-3.94
	c4.24-1.47,8.51-2.73,12.81-3.78c4.3-1.05,8.44-1.69,12.42-1.94c3.98-0.25,7.55,0.22,10.73,1.4c4.89,1.82,8.11,4.47,9.67,7.94
	c1.55,3.48,2.26,7.3,2.09,11.46c-3.77-0.09-8.35,0.12-13.73,0.62c-5.38,0.51-11.14,1.23-17.27,2.16c-6.14,0.93-12.4,2.03-18.8,3.31
	c-6.4,1.28-12.5,2.65-18.32,4.09c-1.56,0.47-3.16,0.95-4.78,1.43c-1.63,0.48-3.25,0.77-4.86,0.87c-1.98,0.15-3.54-0.22-4.67-1.13
	c-1.13-0.9-2.19-2.67-3.19-5.28c-0.99-2.61-1.3-4.61-0.93-5.98c0.37-1.37,1.02-2.31,1.95-2.81c3.69-2.28,7.17-4.93,10.44-7.96
	c3.27-3.03,6.43-6.14,9.49-9.33c2.62-2.75,5.36-5.74,8.23-8.97c2.86-3.23,5.78-6.55,8.74-9.98c2.96-3.43,5.84-6.81,8.63-10.15
	c2.78-3.34,5.42-6.43,7.9-9.29c1.51-1.72,2.87-3.22,4.06-4.52c1.19-1.3,2.63-2.69,4.29-4.18c-2.21,0.31-4.56,0.8-7.03,1.47
	s-4.93,1.26-7.36,1.79c-2.44,0.53-4.79,0.89-7.08,1.09c-2.29,0.2-4.37-0.07-6.23-0.81c-4.11-1.55-6.61-3.77-7.52-6.65
	c-0.91-2.88-1.02-6.37-0.35-10.48c0.91,0.25,2.69,0.22,5.34-0.1c2.65-0.31,5.75-0.72,9.32-1.22c3.56-0.5,7.37-1.1,11.4-1.8
	c4.04-0.69,7.93-1.34,11.66-1.93c3.74-0.59,7.08-1.15,10.01-1.7c2.93-0.54,5.07-0.9,6.43-1.09c2.35-0.21,4.23,0.66,5.63,2.59
	c1.4,1.93,2.29,6.01,2.66,12.22c-1.84,1.14-3.66,2.24-5.45,3.31C253.12,117.35,251.38,118.5,249.68,119.75z"/>
<path d="M444.69,84.12c-1.2,3.93-2.6,8.05-4.18,12.34c-1.59,4.3-3.19,8.66-4.83,13.09c-1.63,4.43-3.23,8.92-4.77,13.46
	c-1.56,4.54-2.77,9.01-3.66,13.4c-1.29,6.83-0.96,11.36,0.98,13.59c1.94,2.23,4.34,2.33,7.19,0.3c2.39-1.72,4.77-4.15,7.14-7.31
	c2.38-3.15,4.64-6.64,6.8-10.45c2.16-3.81,4.15-7.7,5.97-11.65c1.82-3.95,3.37-7.65,4.64-11.09c1.61-0.98,2.94-1.38,3.97-1.22
	c1.02,0.17,1.81,1.28,2.35,3.33c-2.91,7.81-5.9,15-8.98,21.57c-3.08,6.58-6.83,12.87-11.24,18.89c-1.88,2.65-4.25,5.18-7.11,7.58
	c-2.86,2.41-5.89,4.25-9.09,5.52c-3.21,1.26-6.44,1.66-9.71,1.18s-6.25-2.34-8.97-5.59c-3-3.46-4.85-7.24-5.55-11.34
	c-0.71-4.1-0.73-8.26-0.08-12.49c-2.27,4.33-4.72,8.69-7.37,13.07c-2.64,4.39-5.48,8.2-8.53,11.46c-3.06,3.25-6.19,5.64-9.42,7.16
	c-3.24,1.52-6.51,1.64-9.82,0.35c-2.93-1.21-5.18-2.96-6.76-5.25c-1.57-2.28-2.72-4.82-3.43-7.6c-0.7-2.78-1.02-5.68-0.95-8.7
	c0.08-3.02,0.31-5.81,0.7-8.37c0.96-6.53,2.49-12.98,4.6-19.36c2.11-6.38,4.68-12.53,7.73-18.48c0.68-1.35,1.55-3.01,2.58-4.97
	c1.04-1.96,2.21-3.88,3.51-5.76c1.3-1.88,2.65-3.63,4.05-5.27c1.39-1.64,2.8-2.81,4.21-3.51c2.11-1.05,4.12-1.65,6.05-1.79
	c1.92-0.15,3.67,0.02,5.24,0.48c1.57,0.47,2.97,1.05,4.2,1.76c1.23,0.7,2.2,1.38,2.92,2.03c-1.53,2.47-3.13,5.33-4.8,8.57
	c-1.67,3.25-3.38,6.65-5.14,10.22s-3.43,7.19-5.04,10.86c-1.61,3.68-3.12,7.18-4.53,10.51c-3.56,8.53-5.55,14.86-5.97,18.99
	c-0.42,4.13,0.05,6.6,1.42,7.41c1.37,0.81,3.35,0.22,5.95-1.78c2.6-1.99,5.2-4.87,7.81-8.62c1.99-2.79,3.81-5.62,5.48-8.48
	c1.66-2.87,3.35-5.8,5.06-8.8c3.78-6.92,7.07-14.07,9.85-21.41c2.79-7.35,5.83-14.83,9.15-22.44c0.87-1.87,1.81-3.36,2.85-4.45
	c1.04-1.09,2.64-1.47,4.82-1.15c5.9,0.92,9.68,2.2,11.35,3.85C444.98,79.38,445.44,81.51,444.69,84.12z M418.25,55.33
	c-0.62,1.84-1.55,3.48-2.79,4.9c-1.24,1.43-2.67,2.61-4.3,3.52c-1.63,0.92-3.39,1.48-5.31,1.69c-1.91,0.21-3.79,0-5.63-0.62
	c-3.82-1.34-6.53-3.87-8.12-7.6c-1.59-3.72-1.77-7.42-0.53-11.11c1.25-3.56,3.64-6.34,7.18-8.35c3.54-2,7.22-2.34,11.05-1
	c1.84,0.62,3.45,1.58,4.83,2.89s2.4,2.83,3.09,4.54c0.68,1.72,1.09,3.55,1.24,5.46C419.1,51.61,418.86,53.49,418.25,55.33z
	 M449.77,50.88c-1.24,3.68-3.6,6.49-7.08,8.43c-3.49,1.93-7.13,2.29-10.94,1.07c-3.82-1.34-6.5-3.88-8.03-7.61
	c-1.53-3.73-1.68-7.44-0.44-11.12c0.63-1.72,1.56-3.32,2.8-4.81c1.23-1.49,2.66-2.66,4.3-3.52c1.63-0.86,3.4-1.39,5.32-1.6
	c1.91-0.21,3.79,0,5.63,0.61c1.97,0.6,3.61,1.56,4.92,2.88c1.31,1.32,2.34,2.84,3.09,4.55c0.74,1.71,1.15,3.54,1.24,5.46
	C450.65,47.15,450.38,49.04,449.77,50.88z"/>
<path class="st1" d="M328.22,192.39l8.31-23.73c0.79-2.37,1.9-5.82,3.33-10.34c1.43-4.53,3.01-9.51,4.75-14.96
	c1.74-5.44,3.53-11.12,5.4-17.02c1.86-5.9,3.62-11.45,5.27-16.63c1.65-5.18,3.11-9.68,4.39-13.5c1.28-3.81,2.25-6.46,2.92-7.93
	c-1.09-0.6-2.35-0.86-3.78-0.78c-1.43,0.08-2.93,0.35-4.49,0.82c-1.57,0.47-3.05,1.02-4.47,1.66c-1.41,0.64-2.52,1.27-3.31,1.88
	c-2.39,1.72-4.53,3.68-6.41,5.89c-1.89,2.21-3.58,4.61-5.09,7.21c-0.56-2.18-1.61-4.28-3.15-6.32c-3.03-3.71-6.5-5.88-10.41-6.52
	c-3.92-0.64-7.88-0.33-11.9,0.93c-4.02,1.26-7.86,3.15-11.52,5.67c-3.66,2.52-6.73,5.15-9.22,7.88c-4.99,5.47-9.38,11.7-13.15,18.69
	c-3.78,6.99-6.6,14.12-8.45,21.4c-0.9,3.39-1.5,6.92-1.8,10.6c-0.29,3.68-0.1,7.25,0.58,10.73c0.68,3.48,1.93,6.75,3.74,9.81
	c1.81,3.07,4.36,5.62,7.66,7.66c3.58,2.25,7.05,3.33,10.42,3.23c3.37-0.1,6.53-0.99,9.49-2.66s5.69-3.84,8.2-6.52
	c2.5-2.67,4.68-5.45,6.53-8.35l-5.59,20.34c-5.65-0.08-11.59,0.29-17.8,1.1c-6.22,0.82-11.91,2.4-17.1,4.77
	c-5.18,2.36-9.44,5.69-12.78,9.99c-3.34,4.29-4.97,9.88-4.87,16.76c0.16,6.49,1.84,11.71,5.03,15.65c3.19,3.93,7.11,6.64,11.77,8.11
	c4.66,1.47,9.58,1.72,14.77,0.74c5.19-0.99,9.87-3.09,14.06-6.31c4.64-3.54,8.55-7.76,11.75-12.66c3.19-4.9,5.93-9.95,8.2-15.16
	l9.03-22.09C328.42,192.4,328.32,192.39,328.22,192.39z M295.73,222.65c-1.67,3.68-3.94,6.92-6.8,9.7c-1.76,1.75-3.86,3.09-6.3,3.99
	c-2.44,0.91-4.87,1.22-7.29,0.94c-2.42-0.29-4.58-1.17-6.48-2.65c-1.91-1.49-3.12-3.7-3.66-6.63c-0.66-2.91-0.55-5.47,0.33-7.66
	c0.88-2.19,2.19-4.04,3.92-5.53c1.74-1.5,3.77-2.63,6.1-3.4c2.34-0.77,4.76-1.14,7.27-1.12c2.88-0.03,5.75,0.06,8.6,0.29
	c2.85,0.22,5.74,0.51,8.67,0.84C298.85,215.22,297.4,218.96,295.73,222.65z M327.94,118.55c-0.17,1.41-0.44,2.69-0.77,3.87
	c-2.75,7.16-5.27,14.59-7.56,22.31c-0.46,1.19-0.92,2.39-1.38,3.58c-0.46,1.19-0.99,2.33-1.59,3.42c-0.79,1.49-1.6,2.86-2.43,4.11
	c-0.83,1.24-1.72,2.5-2.66,3.76c-2.01,2.66-4.49,5.3-7.44,7.91c-2.95,2.61-6.26,3.86-9.9,3.75c-3.28-0.16-5.38-1.65-6.28-4.47
	c-0.9-2.82-1.2-6.04-0.89-9.65c0.3-3.62,0.93-7.18,1.87-10.7c0.94-3.52,1.68-6.07,2.21-7.64c1.27-3.44,2.7-6.84,4.3-10.2
	c1.59-3.36,3.42-6.62,5.48-9.79c1.85-2.9,4.13-5.79,6.86-8.68c2.72-2.89,5.92-4.66,9.59-5.3c2.21-0.31,4-0.1,5.36,0.65
	c1.36,0.75,2.44,1.79,3.26,3.11c0.82,1.33,1.38,2.88,1.69,4.65C327.97,115,328.06,116.78,327.94,118.55z"/>
<path d="M324.5,189.92c-0.01,0-0.01,0-0.02,0l9.38-26.59c0.79-2.37,1.9-5.82,3.33-10.34c1.43-4.53,3.01-9.51,4.75-14.96
	c1.74-5.44,3.53-11.12,5.4-17.02c1.86-5.9,3.62-11.45,5.27-16.63c1.65-5.18,3.11-9.68,4.39-13.5c1.28-3.81,2.25-6.46,2.92-7.93
	c-1.09-0.6-2.35-0.86-3.78-0.78c-1.43,0.08-2.93,0.35-4.49,0.82c-1.57,0.47-3.05,1.02-4.47,1.66c-1.41,0.64-2.52,1.27-3.31,1.88
	c-2.39,1.72-4.53,3.68-6.41,5.89c-1.88,2.21-3.58,4.61-5.09,7.21c-0.56-2.18-1.61-4.28-3.15-6.32c-3.03-3.71-6.5-5.88-10.41-6.52
	c-3.92-0.64-7.88-0.33-11.9,0.93c-4.02,1.26-7.86,3.15-11.52,5.67c-3.66,2.52-6.73,5.15-9.22,7.88c-4.99,5.47-9.38,11.7-13.15,18.69
	c-3.78,6.99-6.6,14.12-8.45,21.4c-0.9,3.39-1.5,6.92-1.8,10.6c-0.29,3.68-0.1,7.25,0.58,10.73c0.68,3.48,1.93,6.75,3.74,9.81
	c1.81,3.07,4.36,5.62,7.66,7.66c3.58,2.25,7.05,3.33,10.42,3.23c3.37-0.1,6.53-0.99,9.49-2.66c2.96-1.67,5.69-3.84,8.2-6.52
	c2.5-2.67,4.68-5.45,6.53-8.35l-5.59,20.34c-5.65-0.08-11.59,0.29-17.8,1.1c-6.22,0.82-11.91,2.4-17.1,4.77
	c-5.18,2.36-9.44,5.69-12.78,9.99c-3.34,4.29-4.97,9.88-4.87,16.76c0.16,6.49,1.84,11.71,5.03,15.65c3.19,3.93,7.11,6.64,11.77,8.11
	c4.66,1.47,9.58,1.72,14.77,0.74c5.19-0.99,9.87-3.09,14.06-6.31c4.64-3.54,8.55-7.76,11.75-12.66c3.19-4.9,5.93-9.95,8.2-15.16
	c0.24,0.04,0.47,0.06,0.71,0.1C317.71,202.18,321.26,196.18,324.5,189.92z M293.06,217.31c-1.67,3.68-3.94,6.92-6.8,9.7
	c-1.76,1.75-3.86,3.09-6.3,3.99c-2.44,0.91-4.87,1.22-7.29,0.94c-2.42-0.29-4.58-1.17-6.48-2.65c-1.91-1.49-3.12-3.7-3.66-6.63
	c-0.66-2.91-0.55-5.47,0.33-7.66c0.88-2.19,2.19-4.04,3.92-5.53c1.74-1.5,3.77-2.63,6.1-3.4c2.34-0.77,4.76-1.14,7.27-1.12
	c2.88-0.03,5.75,0.06,8.6,0.29c2.85,0.22,5.74,0.51,8.67,0.84C296.18,209.88,294.73,213.62,293.06,217.31z M315.56,142.97
	c-0.46,1.19-0.99,2.33-1.59,3.42c-0.79,1.49-1.6,2.86-2.43,4.11c-0.83,1.24-1.72,2.5-2.66,3.76c-2.01,2.66-4.49,5.3-7.44,7.91
	c-2.95,2.61-6.26,3.86-9.9,3.75c-3.28-0.16-5.38-1.65-6.28-4.47c-0.9-2.82-1.2-6.04-0.89-9.65c0.3-3.62,0.93-7.18,1.87-10.7
	c0.94-3.52,1.68-6.07,2.21-7.64c1.27-3.44,2.7-6.84,4.3-10.2c1.59-3.36,3.42-6.62,5.48-9.79c1.85-2.9,4.13-5.79,6.86-8.68
	c2.72-2.89,5.92-4.66,9.59-5.3c2.21-0.31,4-0.1,5.36,0.65c1.36,0.75,2.44,1.79,3.26,3.11c0.82,1.33,1.38,2.88,1.69,4.65
	c0.31,1.78,0.4,3.55,0.28,5.32c-0.17,1.41-0.44,2.69-0.77,3.87c-2.75,7.16-5.27,14.59-7.56,22.31
	C316.48,140.58,316.02,141.77,315.56,142.97z"/>
<path class="st3" d="M253.86,205.67c0,0,6.96-23.85,64.39-19.84c54.76,13.38,94.52,10.01,142.49-15.69
	c-18.32,24.37-56.76,58.64-119.55,44C270.96,197.76,253.86,205.67,253.86,205.67z"/>
</svg>
